<?xml version="1.0" encoding="UTF-8"?>
<svg version="1.1" xmlns="http://www.w3.org/2000/svg" width="834" height="1424">
<path d="M0 0 C4.48595529 1.55217465 8.22842801 3.97288294 12.125 6.625 C12.78878662 7.07375488 13.45257324 7.52250977 14.13647461 7.98486328 C16.09613741 9.31589254 18.04925857 10.65593864 20 12 C21.45212891 12.99773437 21.45212891 12.99773437 22.93359375 14.015625 C40.24910783 26.26255621 55.50671998 40.86951652 68 58 C68.65379639 58.89525391 68.65379639 58.89525391 69.32080078 59.80859375 C87.47191799 85.01283264 95.93445875 115.3445875 99 146 C99.11085938 147.02609375 99.22171875 148.0521875 99.3359375 149.109375 C107.14422473 235.63363893 72.50341298 321.43388433 36 398 C35.05311669 400.00377929 34.10649721 402.00768327 33.16015625 404.01171875 C27.1571241 416.66779289 20.94180427 429.21675246 14.6875 441.75 C14.30695465 442.51376953 13.9264093 443.27753906 13.53433228 444.06445312 C12.42504012 446.28897542 11.3124148 448.51180421 10.19921875 450.734375 C9.84541641 451.44549438 9.49161407 452.15661377 9.12709045 452.88928223 C7.47253709 456.18934599 5.77668327 459.43499577 3.90087891 462.61523438 C-0.06817588 469.43072258 -2.10304406 474.12089066 -1 482 C-0.89913086 482.87575684 -0.79826172 483.75151367 -0.69433594 484.65380859 C-0.32351498 487.51377783 0.13391024 490.34577436 0.625 493.1875 C0.80393799 494.22849854 0.98287598 495.26949707 1.16723633 496.34204102 C9.93917473 545.38128335 32.96790462 590.52299243 58.21875 632.98583984 C61.35783498 638.29767416 64.42514987 643.65081491 67.5 649 C71.74741989 656.37914543 76.01491516 663.74553028 80.32104492 671.09057617 C88.05863346 684.29535191 95.63080054 697.58587582 103 711 C103.49097168 711.89251465 103.98194336 712.7850293 104.48779297 713.70458984 C126.91840831 754.74866714 144.30306578 799.80401706 146 847 C146.061875 848.59714844 146.061875 848.59714844 146.125 850.2265625 C146.40860373 865.08030809 144.98069404 880.10612792 142.1875 894.6875 C142.04666992 895.45143066 141.90583984 896.21536133 141.76074219 897.00244141 C140.37322109 903.70396553 137.73650784 909.75051754 135 916 C134.05456273 918.22074725 133.11058772 920.44211752 132.16796875 922.6640625 C129.12464335 929.78150892 126.06727694 936.89284495 123 944 C122.57654297 944.98194336 122.15308594 945.96388672 121.71679688 946.97558594 C120.63036839 949.48670487 119.53607707 951.99417662 118.4375 954.5 C118.12772217 955.21623535 117.81794434 955.9324707 117.4987793 956.67041016 C115.93463684 960.20941843 114.35458445 962.86055407 112 966 C106.72 965.34 101.44 964.68 96 964 C96.99580078 966.59294922 96.99580078 966.59294922 98.01171875 969.23828125 C103.11724853 982.67373346 107.91822492 995.95016827 111 1010 C111.16081055 1010.68126953 111.32162109 1011.36253906 111.48730469 1012.06445312 C113.73449157 1021.76674039 114.3350549 1031.43323125 114.47177124 1041.38217163 C114.49920983 1043.31921737 114.54583017 1045.25596167 114.59301758 1047.19262695 C114.59472877 1055.85069615 112.96141166 1062.31829376 109 1070 C108.4428833 1071.08474609 108.4428833 1071.08474609 107.87451172 1072.19140625 C106.85253194 1074.09188003 105.78273927 1075.95343962 104.6875 1077.8125 C103.89738906 1079.19210841 103.10834895 1080.57233058 102.3203125 1081.953125 C101.93004883 1082.63310547 101.53978516 1083.31308594 101.13769531 1084.01367188 C95.14959319 1094.46843558 90.06923089 1105.11161844 85.41235352 1116.23266602 C85.01201904 1117.18069092 84.61168457 1118.12871582 84.19921875 1119.10546875 C83.84690186 1119.95262451 83.49458496 1120.79978027 83.1315918 1121.67260742 C81.96497402 1124.07203941 80.76542882 1125.99932897 79 1128 C73.40323285 1129.86558905 67.29805161 1129.24501258 61.4375 1129.25 C60.38331375 1129.25101212 60.38331375 1129.25101212 59.30783081 1129.25204468 C21.53533564 1129.1943059 -13.04665575 1114.75587174 -40.125 1088.375 C-65.51506672 1062.71324969 -78.04852338 1027.25918437 -78.375 991.5 C-78.26596506 976.58457952 -76.3206393 961.97266988 -71 948 C-70.64503765 946.67226109 -70.3033847 945.34046507 -70 944 C-91.35042299 922.73835216 -120.07933727 912.7344388 -149.98803711 912.7512207 C-183.11997046 913.24487905 -212.87970058 926.76015592 -237 949 C-237.74636719 949.67546875 -238.49273437 950.3509375 -239.26171875 951.046875 C-241.27376744 952.95689283 -243.13725091 954.94404993 -245 957 C-245.89589844 957.93328125 -246.79179687 958.8665625 -247.71484375 959.828125 C-256.54139229 969.55919764 -259.5876303 980.27649961 -262 993 C-262.12883575 993.67299133 -262.25767151 994.34598267 -262.39041138 995.03936768 C-264.6737737 1007.24072263 -265.53110938 1019.09916466 -265.4375 1031.5 C-265.43445862 1032.36374237 -265.43141724 1033.22748474 -265.42828369 1034.11740112 C-265.15641651 1086.69349289 -246.61223253 1138.0754978 -215 1180 C-214.57638184 1180.56783203 -214.15276367 1181.13566406 -213.71630859 1181.72070312 C-206.4445932 1191.42361633 -198.41509146 1200.28093173 -190 1209 C-189.10023438 1209.94101563 -188.20046875 1210.88203125 -187.2734375 1211.8515625 C-181.54747549 1217.72294576 -175.45482971 1222.95196765 -169 1228 C-168.38237793 1228.48871582 -167.76475586 1228.97743164 -167.12841797 1229.48095703 C-107.6904544 1276.42697204 -32.79629131 1301.04990883 43 1292.8125 C97.350186 1286.27178994 148.99894829 1264.16675736 191 1229 C192.45599609 1227.82050781 192.45599609 1227.82050781 193.94140625 1226.6171875 C201.80870243 1220.14907652 209.09676496 1213.11653458 216.3125 1205.9375 C217.2312793 1205.02790527 218.15005859 1204.11831055 219.09667969 1203.18115234 C225.15511924 1197.09536339 230.67881782 1190.73656946 236 1184 C236.71530884 1183.11211792 236.71530884 1183.11211792 237.44506836 1182.20629883 C252.1470668 1163.92530789 263.99538439 1143.66267489 275 1123 C276.337693 1127.01307901 275.25610913 1128.19953953 273.45703125 1131.9765625 C273.17777298 1132.5699794 272.89851471 1133.1633963 272.61079407 1133.77479553 C271.68779519 1135.7296673 270.75067379 1137.67737062 269.8125 1139.625 C269.16257726 1140.98901947 268.51333312 1142.35336247 267.86474609 1143.71801758 C266.54396429 1146.49383041 265.21754432 1149.26686118 263.88818359 1152.03857422 C262.21141093 1155.54334463 260.57770181 1159.06654076 258.95703125 1162.59765625 C249.31608046 1183.44532364 238.0005117 1203.73950354 224 1222 C223.18541941 1223.08665643 222.371635 1224.1739101 221.55859375 1225.26171875 C207.2715319 1244.24197949 191.23849359 1262.7319451 173 1278 C172.49887695 1278.43086914 171.99775391 1278.86173828 171.48144531 1279.30566406 C114.91793854 1327.83995983 42.25267622 1351.69667602 -31.97875977 1346.484375 C-102.63776513 1340.6402598 -175.34105057 1307.79754716 -222.6875 1254 C-223.19539063 1253.38640625 -223.70328125 1252.7728125 -224.2265625 1252.140625 C-225.64225008 1250.43182149 -227.10641735 1248.76321928 -228.5859375 1247.109375 C-268.31222881 1202.56070145 -291.58643097 1142.93393031 -291.3125 1083.25 C-291.31067719 1082.41994446 -291.30885437 1081.58988892 -291.30697632 1080.73468018 C-291.25983665 1067.95046378 -290.717809 1055.53373964 -288 1043 C-287.74259033 1041.77821045 -287.74259033 1041.77821045 -287.47998047 1040.53173828 C-282.72240492 1018.52104247 -274.2211534 998.25371715 -264.84942627 977.85247803 C-263.97928598 975.95482567 -263.1138688 974.05507806 -262.24951172 972.15478516 C-249.94846358 945.13636258 -237.29327401 919.18138817 -216 898 C-215.52095215 897.51837402 -215.0419043 897.03674805 -214.54833984 896.54052734 C-190.66901887 872.79050219 -157.99460266 859.96746005 -124.4375 859.625 C-94.87444925 859.99580622 -67.65279089 869.84366433 -46 890 C-45.03449219 890.80953125 -44.06898438 891.6190625 -43.07421875 892.453125 C-41 895 -41 895 -40.90625 897.7265625 C-42.67438277 903.01833129 -45.22059435 907.87956483 -47.76171875 912.8359375 C-50.25981559 917.88063791 -51.78607359 922.32585662 -52 928 C-52.03738281 928.87785156 -52.07476562 929.75570312 -52.11328125 930.66015625 C-53.27137852 968.32349365 -43.49687548 1001.958928 -19 1031 C-18.23236328 1031.95132812 -18.23236328 1031.95132812 -17.44921875 1032.921875 C2.1292359 1056.77487096 35.25570754 1071.92268836 65.45849609 1075.39794922 C72.96117617 1076.11416436 80.47334023 1076.61789517 88 1077 C83.48393774 1050.96622933 75.53776403 1027.73266686 64 1004 C63.55253418 1003.06945801 63.10506836 1002.13891602 62.64404297 1001.18017578 C57.27868989 990.05123685 51.4951843 979.24196542 45.33959961 968.5324707 C40.20655104 959.52352337 35.42739265 950.34469693 30.6875 941.125 C30.12601761 940.0363414 30.12601761 940.0363414 29.55319214 938.9256897 C21.90760219 924.08368165 14.48288152 909.20265112 8.75 893.5 C8.3267041 892.34508057 7.9034082 891.19016113 7.46728516 890.00024414 C4.29634661 881.17571812 1.30175713 872.3163066 0 863 C-0.10143311 862.27627197 -0.20286621 861.55254395 -0.30737305 860.80688477 C-0.92873521 852.56146759 2.7469446 846.20573979 6.4375 839.0625 C7.08035484 837.78269312 7.72112814 836.50183864 8.35986328 835.2199707 C9.63184914 832.67086025 10.9123685 830.12634976 12.19970703 827.58496094 C14.68375011 822.66286038 17.03527293 817.67947031 19.375 812.6875 C20.09091927 811.17046598 20.80703801 809.65352605 21.5234375 808.13671875 C22.01070313 807.10160156 22.49796875 806.06648437 23 805 C23.66 805.33 24.32 805.66 25 806 C25.68261719 808.17041016 25.68261719 808.17041016 26.296875 811.0390625 C26.64649292 812.61131592 26.64649292 812.61131592 27.00317383 814.21533203 C27.24962646 815.34052246 27.4960791 816.46571289 27.75 817.625 C34.83452424 848.28638828 51.76492908 875.47522015 78.5390625 892.9140625 C79.68876287 893.6158796 80.84262194 894.31091785 82 895 C82.63776367 895.37995117 83.27552734 895.75990234 83.93261719 896.15136719 C95.63206488 902.98402489 107.83055462 907.78270286 121 911 C117.52137467 844.93440017 93.10899814 788.0768239 59.64355469 731.78613281 C57.02362529 727.34486213 54.48176893 722.8598984 51.9375 718.375 C47.90844748 711.28728462 43.79435474 704.25599606 39.625 697.25 C28.11093389 677.85197776 17.17067551 658.1363391 7 638 C6.52965332 637.07010254 6.05930664 636.14020508 5.57470703 635.18212891 C-12.52705597 599.10982038 -24.74398127 561.33575442 -28 521 C-28.4218457 521.71317383 -28.84369141 522.42634766 -29.27832031 523.16113281 C-34.17921284 531.44451872 -39.08672623 539.72395279 -44 548 C-44.57492187 548.96873047 -45.14984375 549.93746094 -45.7421875 550.93554688 C-52.42571588 562.18282784 -59.26725661 573.31534689 -66.30615234 584.34375 C-68.18408742 587.28868134 -70.05480545 590.23814285 -71.92578125 593.1875 C-78.92596279 604.20073098 -85.99049157 615.14092466 -93.48193359 625.82666016 C-95.24446218 628.3499843 -96.99154555 630.88368748 -98.73828125 633.41796875 C-107.27336192 645.78058377 -116.01007313 657.96474892 -125 670 C-126.01581414 671.36704697 -127.0314445 672.73423053 -128.046875 674.1015625 C-144.89706302 696.73767516 -162.62980767 718.58589803 -181 740 C-179.02193359 740.03867188 -179.02193359 740.03867188 -177.00390625 740.078125 C-143.18339772 741.02207101 -114.0525552 755.45762223 -89 778 C-86 781.56291391 -86 781.56291391 -86 784 C-90.80106734 783.46014985 -94.11403478 782.03562366 -98.3125 779.6875 C-121.72003369 767.46300807 -147.99338089 770.99464835 -172.34326172 778.39404297 C-209.69476875 790.39040912 -241.76501533 815.01282412 -272.39624023 838.73901367 C-273.67217933 839.72419638 -274.95340106 840.70258941 -276.24072266 841.67285156 C-277.87635333 842.90672449 -279.49182862 844.1671917 -281.10546875 845.4296875 C-284.73363686 847.39800542 -286.05840403 846.9963052 -290 846 C-292.52612305 844.63647461 -292.52612305 844.63647461 -295.01171875 842.90234375 C-295.92985352 842.26917236 -296.84798828 841.63600098 -297.79394531 840.98364258 C-298.74881836 840.30841553 -299.70369141 839.63318848 -300.6875 838.9375 C-301.66686523 838.25518311 -302.64623047 837.57286621 -303.65527344 836.86987305 C-305.5821559 835.52410114 -307.50561977 834.17341854 -309.42529297 832.81738281 C-311.54660778 831.32003145 -313.67713181 829.83864611 -315.81640625 828.3671875 C-323.5059962 822.98140279 -323.5059962 822.98140279 -325 819 C-325.31790945 813.70150913 -323.69346642 811.23052082 -320.25 807.25 C-316.10783145 802.90433347 -311.65110021 799.06085959 -307.02172852 795.25585938 C-302.46664241 791.48613294 -298.308102 787.42510106 -294.1730957 783.20410156 C-291.49437139 780.47586212 -288.78287466 777.85747416 -285.875 775.375 C-279.71259246 770.10940853 -273.94568995 764.35676246 -268.6875 758.1875 C-265.4775834 754.42861904 -262.01187318 750.97284139 -258.5 747.5 C-254.46080702 743.50106288 -250.54278399 739.48141413 -246.86328125 735.14453125 C-244.85904145 732.83776469 -242.78658743 730.60697697 -240.70068359 728.37426758 C-235.62916608 722.94521358 -230.79947981 717.40890189 -226.14453125 711.61328125 C-224.00125044 709.00152377 -221.7761967 706.49634698 -219.5 704 C-214.79373348 698.82800919 -210.39516324 693.43652596 -206 688 C-204.54221617 686.22871427 -203.0838792 684.45788366 -201.625 682.6875 C-186.07441709 663.6574407 -171.2254346 644.03734692 -157 624 C-156.60088409 623.44005341 -156.20176819 622.88010681 -155.79055786 622.30319214 C-147.80110759 611.0892674 -140.0083557 599.74943589 -132.30883789 588.3347168 C-130.43986872 585.56600905 -128.56477026 582.80152011 -126.68945312 580.03710938 C-119.54549986 569.47347579 -112.68352726 558.79061553 -106.11978149 547.85739136 C-104.61656367 545.36399081 -103.08117383 542.89137045 -101.5390625 540.421875 C-89.55889893 521.2185241 -78.14271315 501.69959393 -67 482 C-66.45762695 481.04287109 -65.91525391 480.08574219 -65.35644531 479.09960938 C-23.78122745 405.64126136 16.0603857 328.86827721 55 175 C55.0942627 174.20851562 55.18852539 173.41703125 55.28564453 172.6015625 C57.74704455 149.63436663 57.53017632 124.64267474 53 102 C52.80664062 101.03094727 52.61328125 100.06189453 52.4140625 99.06347656 C46.99347103 72.88904644 39.50576607 45.49588139 23 24 C22.360625 23.113125 21.72125 22.22625 21.0625 21.3125 C18.6452741 18.60227702 15.99215657 16.32891948 13.23046875 13.9765625 C9.95857001 11.07712158 6.93018215 7.95262625 3.8828125 4.8203125 C2.12246661 2.93616102 2.12246661 2.93616102 0 2 C0 1.34 0 0.68 0 0 Z " fill="#EAC599" transform="translate(381,67)"/>
<path d="M0 0 C0.33 0.99 0.66 1.98 1 3 C0.07782693 4.84434614 -0.85175564 6.6853238 -1.81640625 8.5078125 C-18.13912925 42.87711043 -4.71428434 82.0310947 5.46801758 115.99557495 C5.68482178 116.71891022 5.90162598 117.44224548 6.125 118.1875 C6.4489978 119.26778976 6.4489978 119.26778976 6.77954102 120.36990356 C19.63744812 163.40333307 20.64316771 197.82434547 -0.45898438 238.14697266 C-4.24067562 245.14837378 -8.39741921 251.92624362 -12.57958984 258.69335938 C-17.62406121 266.88520631 -22.44670339 275.19930489 -27.20703125 283.55859375 C-27.66980469 284.36425781 -28.13257813 285.16992188 -28.609375 286 C-29.02155273 286.721875 -29.43373047 287.44375 -29.85839844 288.1875 C-31 290 -31 290 -33 292 C-40.15715531 292.58167693 -46.93818513 291.07780216 -53.9375 289.6875 C-55.06607422 289.47416016 -56.19464844 289.26082031 -57.35742188 289.04101562 C-63.77588014 287.7901817 -69.82832021 286.14516022 -76 284 C-75.60321045 285.1245459 -75.2064209 286.2490918 -74.79760742 287.40771484 C-7.13156142 479.38555015 -7.13156142 479.38555015 -48.625 569.5 C-53.53046694 579.70307151 -59.49892332 589.37362146 -65.28222656 599.09326172 C-67.33712498 602.57046759 -69.34200369 606.0744514 -71.34228516 609.58325195 C-80.24110512 625.1569944 -90.04694417 639.79734645 -101 654 C-101.66 653.67 -102.32 653.34 -103 653 C-102.41605469 652.26523438 -102.41605469 652.26523438 -101.8203125 651.515625 C-96.9768696 645.04282112 -93.5012308 638.20560926 -89.98388672 630.95117188 C-87.0081775 624.86749969 -83.73520946 619.05392609 -80.25 613.25 C-49.9044514 561.84835645 -58.99476167 493.36202622 -73.125 438.35058594 C-79.65022452 413.30532292 -87.6051723 388.78127738 -96.1875 364.375 C-133.19820291 259.12430251 -133.19820291 259.12430251 -138 205 C-138.16371094 203.70578125 -138.32742188 202.4115625 -138.49609375 201.078125 C-138.38327053 195.04208252 -134.31950003 190.03759517 -131.1875 185.125 C-130.50840576 184.03034424 -129.82931152 182.93568848 -129.12963867 181.80786133 C-127.75159883 179.58765901 -126.36695289 177.37154277 -124.97558594 175.15966797 C-123.18286439 172.29246551 -121.42864918 169.40727199 -119.6953125 166.50390625 C-119.20393799 165.68325684 -118.71256348 164.86260742 -118.20629883 164.01708984 C-117.30283595 162.50704556 -116.40149689 160.99572775 -115.50268555 159.48291016 C-115.09574463 158.81179199 -114.68880371 158.14067383 -114.26953125 157.44921875 C-113.92510986 156.87518311 -113.58068848 156.30114746 -113.22583008 155.7097168 C-111.69238676 153.57095887 -109.89488904 151.81970096 -108 150 C-107.86948242 151.03817871 -107.73896484 152.07635742 -107.60449219 153.14599609 C-107.11094821 157.04298699 -106.59973759 160.93749948 -106.08349609 164.83154297 C-105.86359336 166.50866349 -105.64831667 168.18639797 -105.43798828 169.86474609 C-103.06018095 188.78578169 -97.24340628 203.4076209 -82 216 C-63.03911286 229.77664458 -41.89692135 236.62209521 -18.95703125 240.45703125 C-16 241 -16 241 -14 242 C-13.16202111 215.51986713 -17.43973229 192.27248582 -25 167 C-26.57102266 161.73165676 -28.13613334 156.46166672 -29.6875 151.1875 C-29.88161469 150.52837616 -30.07572937 149.86925232 -30.27572632 149.19015503 C-38.362563 121.61345099 -44.57965337 89.98017568 -35 62 C-34.49146484 60.48986328 -34.49146484 60.48986328 -33.97265625 58.94921875 C-28.35004776 44.16235869 -19.23171684 30.60459691 -11.0625 17.125 C-10.49770935 16.19228271 -10.49770935 16.19228271 -9.92150879 15.24072266 C-8.83722537 13.45300845 -7.74946591 11.66746765 -6.66015625 9.8828125 C-5.71088257 8.32651123 -5.71088257 8.32651123 -4.74243164 6.73876953 C-3.25377326 4.39888307 -1.70286829 2.18655221 0 0 Z " fill="#F8C795" transform="translate(769,660)"/>
<path d="M0 0 C5.36150354 5.18855182 5.5785929 9.2878197 6.5625 16.5 C6.77036133 17.93472656 6.77036133 17.93472656 6.98242188 19.3984375 C11.55298604 52.63071685 -10.8148542 83.8220104 -29 110 C-29.42490723 110.61391602 -29.84981445 111.22783203 -30.28759766 111.86035156 C-37.20514885 121.81307088 -44.5737606 131.42375749 -52 141 C-52.4758252 141.61375488 -52.95165039 142.22750977 -53.44189453 142.85986328 C-59.24819361 150.33276615 -65.17462878 157.70240647 -71.15966797 165.03271484 C-74.70133399 169.37753695 -78.1817008 173.76446559 -81.625 178.1875 C-85.16961364 182.73771418 -88.81066918 187.18174576 -92.5625 191.5625 C-97.4138101 197.23949271 -102.0043869 203.0886967 -106.50830078 209.04443359 C-108.1963252 211.25737558 -109.9080374 213.45091307 -111.62109375 215.64453125 C-148.67173613 261.59508567 -148.67173613 261.59508567 -165.02734375 316.87109375 C-165.01509766 317.77537109 -165.00285156 318.67964844 -164.99023438 319.61132812 C-164.95514955 321.49161489 -164.91610308 323.37183201 -164.87304688 325.25195312 C-164.81298978 330.21549506 -164.85987004 334.40131244 -167 339 C-169.125 340.375 -169.125 340.375 -171 341 C-182.45445644 317.03227181 -179.17705235 282.79037535 -170.8125 258.23583984 C-155.62820171 216.64832803 -127.54712402 180.90475788 -99.84008789 146.96679688 C-96.29833192 142.62227092 -92.81827619 138.2353289 -89.375 133.8125 C-85.84792795 129.28643067 -82.23005208 124.86019532 -78.5 120.5 C-73.32726449 114.44732379 -68.39249656 108.2325697 -63.51269531 101.94238281 C-61.88960165 99.85824253 -60.25416104 97.78419084 -58.6171875 95.7109375 C-50.73464369 85.69992149 -43.20976329 75.50524392 -36 65 C-35.50790039 64.28908203 -35.01580078 63.57816406 -34.50878906 62.84570312 C-22.48856516 45.437103 -12.25574118 27.47259495 -3.89794922 8.03173828 C-2.6931157 5.30563047 -1.36488648 2.6489853 0 0 Z " fill="#DFDFDF" transform="translate(255,417)"/>
<path d="M0 0 C4.00645737 0.87896769 7.06908627 2.69323132 10.5 4.875 C11.16128906 5.29120605 11.82257812 5.70741211 12.50390625 6.13623047 C24.52685892 13.79370628 36.23838259 21.94983733 48 30 C46.67220318 37.35690313 44.82203606 44.46397579 42.6875 51.625 C42.38062256 52.66591797 42.07374512 53.70683594 41.75756836 54.77929688 C39.26052648 63.21421197 36.67430219 71.61969822 34 80 C34.68707031 80.24621094 35.37414062 80.49242187 36.08203125 80.74609375 C52.44314788 87.77677439 68.18275073 101.43577449 75 118 C79.31287949 131.69479268 73.95336173 145.75446709 69.96240234 158.81542969 C68.46418116 163.77301394 67.08327449 168.76282093 65.6875 173.75 C62.96348414 183.46462819 62.96348414 183.46462819 61 188 C60.67 188 60.34 188 60 188 C59.93683594 187.15179687 59.87367188 186.30359375 59.80859375 185.4296875 C58.14507974 169.49497437 51.25179111 157.99478869 39 148 C28.43621594 139.8156134 16.44462355 133.53922418 4.80322266 127.05639648 C3 126 3 126 2 125 C2.08996309 118.77042094 3.7111984 113.04380379 5.72265625 107.203125 C5.98759384 106.40646423 6.25253143 105.60980347 6.52549744 104.78900146 C7.36273322 102.27308209 8.21132784 99.76123571 9.0625 97.25 C9.91668309 94.72431674 10.76804737 92.19786888 11.61021423 89.66815186 C12.13168064 88.10199202 12.6599761 86.53808441 13.19606018 84.97686768 C15.19017067 79.56228049 15.19017067 79.56228049 15 74 C12.82609682 72.10265276 10.85715712 70.6546674 8.4375 69.13671875 C7.77161865 68.69987259 7.1057373 68.26302643 6.41967773 67.8129425 C4.29006042 66.42119018 2.14566931 65.05434415 0 63.6875 C-1.44635116 62.74834245 -2.89167807 61.80760547 -4.3359375 60.86523438 C-7.87899942 58.55832642 -11.4355017 56.27363167 -15 54 C-12.68719577 43.73852183 -10.13835866 33.65312366 -6.9375 23.625 C-4.46187337 15.7878734 -2.09718733 7.94775662 0 0 Z " fill="#DFDFDF" transform="translate(592,428)"/>
<path d="M0 0 C4.08128415 1.61692881 6.80603512 4.54278168 9.8125 7.625 C10.3472998 8.16624512 10.88209961 8.70749023 11.43310547 9.26513672 C14.83348137 12.73151932 18.07412665 16.29596017 21.21484375 20 C24.19476039 23.33854993 27.4420124 26.40886231 30.66796875 29.5078125 C33.18673757 32.19956209 35.03832099 34.88837123 37 38 C30.88669833 48.08553915 24.42715441 57.84385392 17.56005859 67.43457031 C16.9820752 68.24635742 16.4040918 69.05814453 15.80859375 69.89453125 C15.29095459 70.61487549 14.77331543 71.33521973 14.23999023 72.07739258 C12.83491665 74.08118559 12.83491665 74.08118559 12 77 C12.58394531 77.26039062 13.16789063 77.52078125 13.76953125 77.7890625 C24.95503553 83.86175309 34.81001848 98.99786439 38.60546875 110.8984375 C41.41660455 125.8726064 35.43649508 135.86077782 27.41259766 147.86181641 C25.81461766 150.28060466 24.25554762 152.72218113 22.69921875 155.16796875 C22.12872803 156.06016113 21.5582373 156.95235352 20.97045898 157.87158203 C19.84503357 159.63182595 18.72329586 161.39443447 17.60571289 163.15966797 C14.73860981 167.61197574 11.9304266 171.44078036 8 175 C8.23589844 173.71996094 8.23589844 173.71996094 8.4765625 172.4140625 C10.49761966 159.23194341 8.57042824 149.1281792 0.78222656 138.24682617 C-6.9618202 127.94984807 -16.43801956 118.38352865 -26.64453125 110.52734375 C-28.64304341 108.27541794 -28.9914516 107.03040751 -29 104 C-27.54060116 101.37731222 -26.0880681 99.14176178 -24.3125 96.75 C-23.57495483 95.71794434 -23.57495483 95.71794434 -22.82250977 94.66503906 C-21.77289893 93.19806524 -20.71694136 91.73561545 -19.65527344 90.27734375 C-17.42099417 87.20339728 -15.22361292 84.10404689 -13.0300293 81.00097656 C-11.98640517 79.52585554 -10.93853564 78.05372684 -9.88598633 76.58496094 C-9.40669678 75.91239258 -8.92740723 75.23982422 -8.43359375 74.546875 C-8.01134521 73.95745117 -7.58909668 73.36802734 -7.15405273 72.76074219 C-5.936581 70.90324142 -4.95514186 69.00324023 -4 67 C-4.44802979 66.55720703 -4.89605957 66.11441406 -5.35766602 65.65820312 C-7.42870096 63.60823317 -9.49560697 61.55414567 -11.5625 59.5 C-12.26697266 58.80390625 -12.97144531 58.1078125 -13.69726562 57.390625 C-18.34487438 52.7644338 -22.75074904 47.99457142 -27 43 C-25.27743426 37.92403704 -22.42127111 33.61818964 -19.5625 29.125 C-19.03479004 28.290896 -18.50708008 27.45679199 -17.96337891 26.59741211 C-14.0356272 20.45774065 -9.88218157 14.52825685 -5.47875977 8.72119141 C-3.35654803 5.91577187 -1.41386743 3.2328317 0 0 Z " fill="#DFDFDF" transform="translate(584,1004)"/>
<path d="M0 0 C0.33 0 0.66 0 1 0 C1.51311176 38.44537385 -9.73635212 65.76146016 -30.5 97.4375 C-34.68464757 103.82202428 -38.62368593 110.32466889 -42.4375 116.9375 C-43.18193359 118.21548462 -43.18193359 118.21548462 -43.94140625 119.51928711 C-51.27976374 132.01710351 -51.27976374 132.01710351 -52 146 C-48.17088323 156.33385861 -42.60577491 165.16483852 -32.25 169.9375 C-23.13237715 172.91826132 -14.84381491 172.83917546 -6 169 C1.95343595 164.38931249 5.97328764 158.05342473 10 150 C10.66 150 11.32 150 12 150 C12.19869047 158.29874387 11.61218191 166.38106976 10.6875 174.625 C10.56955078 175.78773438 10.45160156 176.95046875 10.33007812 178.1484375 C9.00441881 190.16774867 6.48473403 199.90807735 -3.24609375 207.828125 C-12.12978914 214.00027087 -21.34305218 215.45003094 -32 214 C-41.08392554 211.34485951 -47.6890436 205.72700624 -53 198 C-58.33468479 188.08899247 -60.37834445 177.73399914 -60.25 166.5625 C-60.24323242 165.6748999 -60.23646484 164.7872998 -60.22949219 163.87280273 C-59.60419424 121.55976324 -50.91979815 88.35718727 -27.36767578 53.07568359 C-16.28794615 36.26028528 -6.54831891 19.08000372 0 0 Z " fill="#DFDFDF" transform="translate(354,153)"/>
<path d="M0 0 C0.66 0 1.32 0 2 0 C2.40863281 0.90105469 2.81726563 1.80210938 3.23828125 2.73046875 C9.29071841 13.9630406 22.34321742 19.41665136 33.15527344 25.14111328 C45.56413417 31.74582948 55.64441947 37.75151174 60 52 C62.106465 61.00273424 62.10475868 69.55782377 61.625 78.75 C61.53992188 80.67199219 61.53992188 80.67199219 61.453125 82.6328125 C61.31328489 85.75590823 61.16205746 88.8779919 61 92 C60.54181885 91.59225342 60.0836377 91.18450684 59.61157227 90.7644043 C50.94342509 83.16938034 42.26951091 81.11603903 31 79 C30.73316406 79.89203125 30.46632813 80.7840625 30.19140625 81.703125 C25.4483775 94.82809637 13.4090861 105.62166887 2 113 C1.34515625 113.433125 0.6903125 113.86625 0.015625 114.3125 C-8.33957924 119.16851614 -19.1916338 119.97361874 -28.47265625 117.8203125 C-38.57456369 114.54148628 -45.40449528 108.454951 -50.3125 99.125 C-54.17073228 90.77064103 -55.15772792 83.8151988 -55.25 74.6875 C-55.25950684 73.89778809 -55.26901367 73.10807617 -55.27880859 72.29443359 C-55.23848986 65.31332032 -55.23848986 65.31332032 -53 62 C-52.67128906 63.57587891 -52.67128906 63.57587891 -52.3359375 65.18359375 C-49.61293135 77.52386944 -45.61739242 86.42790618 -35 94 C-27.29490897 98.3301338 -18.64994824 99.1827225 -10.0703125 97.38671875 C-2.20680201 95.06851501 3.68701075 91.14171137 10 86 C10.71671875 85.43539063 11.4334375 84.87078125 12.171875 84.2890625 C15.33291965 81.71581541 17.31536793 79.77228617 19 76 C18.39671875 75.62488281 17.7934375 75.24976563 17.171875 74.86328125 C11.69800232 71.35823697 7.13817845 68.41453535 5 62 C4.90526146 60.00566433 4.86927801 58.00830228 4.8671875 56.01171875 C4.86589844 54.83029297 4.86460937 53.64886719 4.86328125 52.43164062 C4.86714844 51.19607422 4.87101562 49.96050781 4.875 48.6875 C4.86919922 46.85155273 4.86919922 46.85155273 4.86328125 44.97851562 C4.86457031 43.79322266 4.86585938 42.60792969 4.8671875 41.38671875 C4.86831543 40.30608154 4.86944336 39.22544434 4.87060547 38.11206055 C5 35 5 35 5.65673828 31.79614258 C6.3638105 28.72451038 6.3638105 28.72451038 3.625 25.875 C2.75875 24.92625 1.8925 23.9775 1 23 C0.00192934 20.12466769 -0.11811394 17.48086344 -0.09765625 14.453125 C-0.09443359 13.60878906 -0.09121094 12.76445313 -0.08789062 11.89453125 C-0.07532227 10.58548828 -0.07532227 10.58548828 -0.0625 9.25 C-0.05798828 8.36183594 -0.05347656 7.47367188 -0.04882812 6.55859375 C-0.037074 4.37232671 -0.02064249 2.18619821 0 0 Z M11 45 C10.34 45.99 9.68 46.98 9 48 C14.97936168 54.4309751 21.38760241 57.34095457 30 59 C30.66 58.67 31.32 58.34 32 58 C33.14646732 54.39356308 33.79524581 50.61767951 32.0859375 47.140625 C28.64982642 42.88237691 25.94598694 41.21622077 20.625 40.625 C16.32919568 41.06939355 14.32216411 42.29591294 11 45 Z M36 48 C36 51.96 36 55.92 36 60 C37.02480469 60.26554687 38.04960937 60.53109375 39.10546875 60.8046875 C40.46618989 61.16129028 41.82686453 61.51807051 43.1875 61.875 C43.86103516 62.04902344 44.53457031 62.22304687 45.22851562 62.40234375 C48.9350457 63.37869801 52.47910367 64.4822544 56 66 C52.65656802 58.43328551 46.93001672 53.35364867 40 49 C38.68 48.67 37.36 48.34 36 48 Z " fill="#DFDFDF" transform="translate(217,1051)"/>
<path d="M0 0 C13.37537506 2.89982003 25.7226147 16.97376792 32.875 27.875 C37.88229072 35.85358987 43.82740093 46.32318913 43 56 C41.54012545 59.92961009 39.48752119 63.45046599 37.375 67.0625 C36.78976562 68.10019531 36.20453125 69.13789062 35.6015625 70.20703125 C34.37178943 72.3827836 33.13300564 74.55346498 31.88574219 76.71923828 C30.0378935 79.93407394 28.22114494 83.16444672 26.4140625 86.40234375 C21.76798895 94.70842545 17.10572367 102.96599364 12 111 C11.01 110.505 11.01 110.505 10 110 C9.37101765 108.10411009 8.82301115 106.18116435 8.3125 104.25 C1.93363237 82.81512862 -12.64280403 68.67902823 -31 57 C-30.41825127 52.16773235 -28.23669417 48.35142985 -25.875 44.1875 C-25.44485596 43.41921875 -25.01471191 42.6509375 -24.5715332 41.859375 C-20.06180499 33.91459725 -15.19240595 26.19301673 -10.26708984 18.50073242 C-6.44765323 12.49623919 -3.0363848 6.43766461 0 0 Z " fill="#DFDFDF" transform="translate(557,680)"/>
<path d="M0 0 C-0.4796272 6.69479629 -1.82316908 12.0507329 -4.5 18.1875 C-4.85457275 19.01048584 -5.20914551 19.83347168 -5.57446289 20.68139648 C-10.85703474 32.5709358 -17.79866601 42.7515602 -27 52 C-27.73476563 52.76957031 -28.46953125 53.53914062 -29.2265625 54.33203125 C-42.33247668 67.19686674 -59.90904022 72.96019591 -78 73 C-88.18522739 72.30794614 -95.94408034 65.87469951 -102.796875 58.734375 C-111.43761191 48.01005614 -117.41922468 33.83441447 -117 20 C-114.37369835 22.55126446 -112.05808098 24.92141986 -109.875 27.875 C-100.83338573 38.73051836 -84.65909191 43.06748709 -71.1796875 44.78125 C-52.64304395 46.05649821 -34.90462711 39.09640206 -21 27 C-20.01 26.01 -20.01 26.01 -19 25 C-20.49707939 24.36803616 -21.99786703 23.74485607 -23.5 23.125 C-24.3353125 22.77695312 -25.170625 22.42890625 -26.03125 22.0703125 C-32.59163993 19.70511929 -38.50665104 18.63385199 -45.4375 18.6875 C-46.17814697 18.69168945 -46.91879395 18.69587891 -47.68188477 18.70019531 C-53.31764145 18.81648576 -57.87658002 19.48323229 -63 22 C-63.67275256 23.33027299 -64.33975637 24.66347444 -65 26 C-65.99 26.33 -66.98 26.66 -68 27 C-67.02459291 20.28052894 -65.15259179 14.10084773 -62.8125 7.75 C-62.5455835 6.98187988 -62.27866699 6.21375977 -62.00366211 5.42236328 C-59.44182198 -1.28836202 -55.66788513 -5.26948473 -49.16015625 -8.33984375 C-32.12825031 -11.8978068 -15.25492373 -7.84538935 0 0 Z " fill="#DFDFDF" transform="translate(544,549)"/>
<path d="M0 0 C0.33 0 0.66 0 1 0 C2.2120616 32.52365295 -8.70218435 56.26480667 -26 83 C-30.46714362 89.9391098 -34.65033934 96.98018334 -38.4375 104.3125 C-38.78006836 104.95856201 -39.12263672 105.60462402 -39.47558594 106.27026367 C-42.15885362 111.60739524 -43.68583136 116.70327958 -42.43359375 122.72265625 C-38.86825203 131.09771386 -34.67433008 136.87307436 -26.421875 141.0546875 C-19.72692943 143.66787593 -13.6819618 143.55724419 -7.02734375 140.9375 C0.73678814 137.34714999 5.39046038 131.62770637 9 124 C9.33 124 9.66 124 10 124 C10.95348551 156.94822149 10.95348551 156.94822149 1.75 169.3125 C-4.59797409 175.51620195 -10.35367423 178.1119711 -19.1875 178.3125 C-27.6140875 178.20881716 -33.02087289 176.0866339 -39.25 170.4375 C-47.75408168 161.27274265 -50.24597098 149.24861917 -50.046875 137.02734375 C-49.96292539 134.99671977 -49.86357127 132.96668281 -49.75 130.9375 C-49.66939331 129.31231445 -49.66939331 129.31231445 -49.5871582 127.65429688 C-47.6955055 92.23212156 -38.23682695 68.40979154 -19.15234375 38.53515625 C-11.35803817 26.3088234 -4.46389927 13.86158194 0 0 Z " fill="#DFDFDF" transform="translate(824,892)"/>
<path d="M0 0 C2 2 2 2 2.046875 5.59765625 C1.9617766 7.08679429 1.86199407 8.57514289 1.75 10.0625 C1.69481201 10.83529297 1.63962402 11.60808594 1.58276367 12.40429688 C0.15018927 30.8125871 -9.58487684 41.79728525 -23.3046875 53.796875 C-35.10852074 63.44522564 -48.55071561 70.86509795 -61.65966797 78.56152344 C-95.39710705 98.18165739 -95.39710705 98.18165739 -115.00390625 130.58984375 C-115.52020711 132.84710112 -116.00762928 135.11128982 -116.45703125 137.3828125 C-117 140 -117 140 -118 142 C-118.99 142 -119.98 142 -121 142 C-122.005199 118.84319345 -116.76200074 95.58025576 -100.9375 77.9375 C-87.03720078 63.11595209 -69.10333812 53.15123692 -51.74511719 42.96435547 C-31.6232117 31.15211052 -13.43997648 19.4472387 0 0 Z " fill="#DFDFDF" transform="translate(545,1186)"/>
<path d="M0 0 C0.66 0 1.32 0 2 0 C4.42269135 4.84538269 4.67314044 9.68308447 5 15 C5.08894531 16.00546875 5.17789063 17.0109375 5.26953125 18.046875 C6.13912069 34.6297434 -4.00630236 48.46369769 -14.625 60.3125 C-15.37394531 61.11429687 -16.12289062 61.91609375 -16.89453125 62.7421875 C-18.77395874 64.75760325 -20.54562096 66.82409021 -22.3125 68.9375 C-26.61230182 73.86991634 -31.51002793 78.15816353 -36.36767578 82.52490234 C-39.67544711 85.51406693 -42.93700039 88.55372895 -46.20458984 91.58666992 C-48.76112838 93.95413353 -51.33239281 96.29232957 -53.94921875 98.59375 C-68.57615804 111.48667278 -83.90095501 129.69620191 -85.31640625 149.98828125 C-85.40195703 151.42948289 -85.48391422 152.8709018 -85.5625 154.3125 C-85.60568359 155.05306641 -85.64886719 155.79363281 -85.69335938 156.55664062 C-85.79870432 158.37091464 -85.89978316 160.1854355 -86 162 C-86.99 162.33 -87.98 162.66 -89 163 C-94.98559691 144.24512968 -94.09256133 120.59559661 -85.4375 102.9375 C-84.02449804 100.25093706 -82.53421768 97.61894958 -81 95 C-80.37222656 93.91847656 -79.74445313 92.83695312 -79.09765625 91.72265625 C-68.80048429 75.90297865 -53.26685278 62.22278312 -39 50 C-22.76014661 35.6356341 -8.10360863 20.514925 0 0 Z " fill="#DFDFDF" transform="translate(583,321)"/>
<path d="M0 0 C0.66 0 1.32 0 2 0 C2.03867187 1.28970703 2.03867187 1.28970703 2.078125 2.60546875 C3.36346515 29.39312601 18.46277949 46.41612226 37 64 C38.32366867 65.15698447 39.65583028 66.30439825 41 67.4375 C55.89707447 80.22854316 68.86612901 96.24836574 72 116 C76.76004434 111.61574863 78.97766955 108.37957551 79.5 101.9375 C78.96303899 83.88964369 59.10345154 67.60643421 47.16723633 56.03051758 C45.07926473 54.07426436 42.93556586 52.21382119 40.75390625 50.36328125 C34.68169781 45.11172276 28.17330354 37.53361318 26.6875 29.4375 C27 26 27 26 28.75 23.5625 C35.61658885 18.79403552 47.45158331 20.39559328 55.46875 21.4609375 C65.34847233 23.67087539 74.47742266 28.01424952 80.87890625 36.04296875 C82 38 82 38 82.1875 41.3125 C80.59077381 44.92614347 78.88011454 46.26138357 75.25 47.6875 C71.82256542 48.16353258 68.45883697 48.05764728 65 48 C65.309375 47.443125 65.61875 46.88625 65.9375 46.3125 C67.14191077 43.69113538 67.92916471 41.90424709 68 39 C61.59328796 30.38407692 51.11534358 26.98135596 41 25 C41 35.3675877 48.06322644 42.19529057 55 49.25 C58.59036203 52.73056503 62.29547431 56.0442898 66.078125 59.3125 C77.38788204 69.24301837 90.49793024 83.27336716 93.0625 98.6875 C93.31169737 104.68990632 92.00609543 109.58001541 88.14453125 114.23828125 C80.82121829 121.32828512 73.89310027 123.13317191 63.875 123.1875 C61.9162454 123.14000133 59.95757823 123.08284422 58 123 C57.15860243 120.13539453 56.98499679 117.84139844 57.1875 114.875 C57.3033047 100.74682666 45.35758747 87.68205033 36.13845825 78.05636597 C30.16481904 71.99554386 24.07287765 66.05181621 17.98730469 60.10375977 C15.65937892 57.8245123 13.34107638 55.53579399 11.0234375 53.24609375 C10.32221771 52.56663193 9.62099792 51.8871701 8.89852905 51.18711853 C0.11605465 42.49208274 -6.86230001 33.29737478 -7.4375 20.625 C-7.2295545 13.23253736 -4.96430626 5.61579002 0 0 Z " fill="#DFDFDF" transform="translate(307,725)"/>
<path d="M0 0 C7.47005173 0.56025388 12.7610381 4.39781604 17.75 9.75 C23.06842046 16.20981664 25.39786383 22.72062767 26 31 C27.19625 31.0825 28.3925 31.165 29.625 31.25 C34.25111048 31.80874869 37.67260699 33.67260699 41 37 C41.07319621 39.69654854 41.09242537 42.36691458 41.0625 45.0625 C41.05798828 45.82111328 41.05347656 46.57972656 41.04882812 47.36132812 C41.0370068 49.24091871 41.01907078 51.12046899 41 53 C40.39671875 52.7834375 39.7934375 52.566875 39.171875 52.34375 C38.37265625 52.0653125 37.5734375 51.786875 36.75 51.5 C35.96109375 51.2215625 35.1721875 50.943125 34.359375 50.65625 C31.76587262 49.82135139 31.76587262 49.82135139 28 50 C27.87044922 51.39798828 27.87044922 51.39798828 27.73828125 52.82421875 C25.2618218 75.29411228 14.06010456 94.22034935 -3 109 C-18.22909581 120.09371532 -38.04487312 123.20373636 -56.47265625 120.48828125 C-57.30667969 120.32714844 -58.14070313 120.16601562 -59 120 C-59 119.34 -59 118.68 -59 118 C-58.38181396 117.79955078 -57.76362793 117.59910156 -57.12670898 117.39257812 C-37.19127981 110.86522832 -21.32381239 103.19213521 -5 90 C-4.39534912 89.51152588 -3.79069824 89.02305176 -3.16772461 88.51977539 C0.80560965 85.21919211 4.24036388 81.74337347 7.4375 77.6875 C7.90341553 77.09718994 8.36933105 76.50687988 8.84936523 75.89868164 C15.20258054 67.49779879 19.17929522 57.75135099 23 48 C22.443125 47.98582031 21.88625 47.97164062 21.3125 47.95703125 C15.13810437 47.57113152 10.68690235 46.12406473 6 42 C-0.88293055 33.9815606 -1.32432005 24.33378692 -1.1875 14.1875 C-1.18685547 13.26001953 -1.18621094 12.33253906 -1.18554688 11.37695312 C-1.15975517 7.4021654 -1.10079465 3.84152625 0 0 Z M3 18 C4.14662449 22.87315408 6.98760459 24.9957405 10.890625 27.7734375 C13.55680968 29.32377452 15.93201552 29.84660078 19 30 C15.80104235 23.89289903 11.12260183 21.00796814 5 18 C4.34 18 3.68 18 3 18 Z " fill="#DFDFDF" transform="translate(59,953)"/>
<path d="M0 0 C0.33 0 0.66 0 1 0 C1.10054687 0.76699219 1.20109375 1.53398437 1.3046875 2.32421875 C3.68202161 16.34397677 10.47375147 28.63989358 17.25415039 40.99707031 C34.97610722 73.30412376 33.66894089 106.56408103 28 142 C27.67 142.99 27.34 143.98 27 145 C26.34 145 25.68 145 25 145 C25.05220703 143.23849609 25.05220703 143.23849609 25.10546875 141.44140625 C25.61775342 116.72237715 18.93727585 96.61134483 7.3125 75 C-3.10479245 55.51584572 -6.45583138 40.14566869 -3.625 18.125 C-3.43599121 16.64483398 -3.43599121 16.64483398 -3.24316406 15.13476562 C-2.53385247 9.92371334 -1.60488004 5.01001683 0 0 Z " fill="#DFDFDF" transform="translate(512,168)"/>
<path d="M0 0 C0.66 0 1.32 0 2 0 C1.71850098 1.02416016 1.43700195 2.04832031 1.14697266 3.10351562 C-1.6315719 13.69442151 -2.59589358 23.58266617 -2.625 34.5 C-2.69237219 43.41888869 -2.87579327 52.23817365 -3.91015625 61.10546875 C-4.02812057 62.12205566 -4.02812057 62.12205566 -4.14846802 63.15917969 C-6.9711746 85.43236237 -17.50635477 104.38091967 -30.125 122.5 C-30.69855225 123.32435547 -31.27210449 124.14871094 -31.86303711 124.99804688 C-35.6119191 130.28604516 -39.63600105 135.20802842 -44 140 C-44.57641602 138.1418457 -44.57641602 138.1418457 -45 136 C-43.77734375 133.73046875 -43.77734375 133.73046875 -41.9375 131.1875 C-31.005306 114.75647788 -28.13408251 95.75478239 -27.7890625 76.3515625 C-27.77468643 75.56737442 -27.76031036 74.78318634 -27.74549866 73.97523499 C-27.68824877 70.70489977 -27.63367557 67.4347199 -27.59863281 64.1640625 C-27.33969308 41.80595583 -20.27774434 26.72905372 -7 9 C-5.948125 7.57300781 -5.948125 7.57300781 -4.875 6.1171875 C-1.41988131 1.5247589 -1.41988131 1.5247589 0 0 Z " fill="#DFDFDF" transform="translate(807,1091)"/>
<path d="M0 0 C0.33 0 0.66 0 1 0 C1.17015625 1.11117188 1.3403125 2.22234375 1.515625 3.3671875 C4.78489176 23.83003463 12.35655718 34.4127498 28.203125 47.87109375 C40.54669237 58.39228405 50.02272323 71.48075133 52 88 C52.68711714 99.7581167 52.4406949 111.45028306 50 123 C47.60616363 120.60616363 47.40181312 118.68372128 46.7590332 115.43969727 C42.96127368 96.2847866 32.68820097 84.57582191 17.7512207 72.75708008 C6.84664638 64.01762252 0.74002514 53.68735169 -2 40 C-2.37954745 35.53166052 -2.37601594 31.10668484 -2.3125 26.625 C-2.31572266 25.49578125 -2.31894531 24.3665625 -2.32226562 23.203125 C-2.27262793 15.3152445 -1.39937006 7.75861386 0 0 Z " fill="#DFDFDF" transform="translate(292,1188)"/>
<path d="M0 0 C11.92778408 1.30507561 24.08875792 6.81203177 31.80859375 16.19921875 C36.99958566 23.53133922 38.36123237 30.14980682 38 39 C33.3698064 34.51011529 33.3698064 34.51011529 31.671875 32.16796875 C25.40944234 23.81256517 14.67127474 19.40731744 5 16 C4.01 16 3.02 16 2 16 C-6.41251505 36.96014434 -6.41251505 36.96014434 -3.3671875 58.484375 C1.10671184 66.71634979 6.943039 71.03794598 15.33935547 74.70581055 C16.92349302 75.40497567 18.46608278 76.19661866 20 77 C20.93742541 79.81227622 21.13470844 81.58746844 21.125 84.5 C21.12886719 85.66015625 21.12886719 85.66015625 21.1328125 86.84375 C21 89 21 89 20 92 C9.24644304 89.1622558 1.89095912 83.4735017 -4 74 C-13.59821435 54.62416543 -11.08084973 31.52574771 -4.4375 11.75 C-1.35249727 2.70499455 -1.35249727 2.70499455 0 0 Z " fill="#DFDFDF" transform="translate(49,925)"/>
<path d="M0 0 C0.66 0.33 1.32 0.66 2 1 C4.74233989 13.10768935 4.2013789 27.43751798 -1.875 38.375 C-4.95857143 42.18411765 -8.39374074 45.51870528 -12.12109375 48.69140625 C-22.25345984 57.38557158 -27.39577263 65.76184422 -30 79 C-30.99 79.495 -30.99 79.495 -32 80 C-34.4110224 65.00461676 -34.16452266 51.26863426 -25.4375 38.3125 C-21.6974747 33.44697176 -17.37270095 29.87026404 -12.5546875 26.11328125 C-4.21174282 19.21185454 -1.11853909 10.51426746 0 0 Z " fill="#DFDFDF" transform="translate(380,1231)"/>
<path d="M0 0 C3.65671794 2.05979682 6.82742347 4.89598214 8 9 C8.42921425 14.40809956 8.43217368 17.58720527 5 22 C1.54214682 25.89008483 -0.54483105 26.88072386 -5.8125 27.3125 C-11.05572502 27.24503203 -14.06011223 24.80610241 -17.8125 21.3125 C-19.68427139 17.66747151 -20.11343626 14.0766155 -20 10 C-18.38944896 5.25782193 -16.12544386 2.7846746 -12 0 C-7.80465573 -1.39844809 -4.27012435 -1.07117454 0 0 Z " fill="#DFDFDF" transform="translate(427,1)"/>
<path d="M0 0 C4.64646027 1.73103422 7.43863658 3.73106096 10 8 C11.45602007 14.0182163 11.18399429 17.48107657 8 23 C4.53793935 26.86936191 1.22806837 27.75595797 -3.7890625 28.09765625 C-7.17580085 27.94806533 -9.24047764 26.92524816 -12 25 C-15.95819761 20.61388914 -17.31222138 18.01065816 -17.21484375 12.02734375 C-16.75968767 7.73232544 -14.57821537 5.5077013 -11.4375 2.75 C-7.39670749 -0.1510818 -5.00610654 -0.33374044 0 0 Z " fill="#DFDFDF" transform="translate(666,671)"/>
<path d="M0 0 C4.27940229 2.32576211 6.1477237 5.25462587 7.6171875 9.78125 C8.31408394 13.82040487 7.70371342 17.2885911 6 21 C2.71616995 24.82961898 -0.67209484 26.88746566 -5.6875 27.3125 C-10.51258854 27.23354401 -13.13253412 25.88164124 -17 23 C-20.30898069 18.30338225 -20.52885803 14.55300933 -20 9 C-18.21191667 4.85917545 -15.6687241 2.56810687 -12 0 C-7.80550837 -1.39816388 -4.28245522 -0.94998126 0 0 Z " fill="#DFDFDF" transform="translate(404,1051)"/>
<path d="M0 0 C3.42282723 2.33374584 4.94672394 4.12973434 6.75 7.875 C7.4232992 12.16444544 7.25605633 15.67644554 5.5625 19.6875 C2.30152955 23.62315399 -0.03785149 25.55705941 -5.0625 26.875 C-9.85612611 27.25631117 -13.39752841 25.62929578 -17.25 22.875 C-20.31785003 19.71127965 -20.51928761 16.69414355 -20.75 12.4375 C-20.64904939 8.69223239 -20.3598855 6.26964048 -18 3.3125 C-12.37566964 -1.67270191 -7.13967849 -2.47142717 0 0 Z " fill="#DFDFDF" transform="translate(259.25,1231.125)"/>
<path d="M0 0 C3.70611346 3.01121719 5.67658622 5.21652071 6.23828125 10.05078125 C6.41915946 15.56280683 5.78759517 18.70056765 2 23 C-1.6899827 26.16284231 -5.07853854 26.51992627 -9.78515625 26.35546875 C-14.05819935 25.66967171 -16.80349234 23.31929962 -19.63671875 20.1953125 C-22.16332589 16.12667865 -21.58209647 11.61662716 -21 7 C-19.22071284 2.84832995 -17.3366252 0.86346716 -13.3125 -1 C-8.58523516 -2.48168003 -4.52549551 -1.92225809 0 0 Z " fill="#DFDFDF" transform="translate(47,1154)"/>
<path d="M0 0 C3.19556529 1.26491126 4.53559295 2.48755084 6.8125 5 C8.66339373 9.67594205 8.8903344 14.05369779 8 19 C5.75897949 23.03101802 3.39019909 25.5366003 -1 27 C-5.69131123 27.54508569 -9.10330648 27.44834676 -13.375 25.3125 C-16.67927865 22.40158786 -18.69358771 20.33639371 -19.28125 15.85546875 C-19.53096624 9.58134822 -18.10024266 6.42840558 -14 1.6875 C-9.4353325 -0.88012547 -5.11957748 -0.63223698 0 0 Z " fill="#DFDFDF" transform="translate(189,634)"/>
<path d="M0 0 C3.48350269 1.99753301 6.19448387 4.38896774 8 8 C8.60110663 12.58819366 9.04707002 17.09473018 6.765625 21.24609375 C3.82817661 24.74340235 1.66661253 26.69016502 -3.05078125 27.23828125 C-8.56280683 27.41915946 -11.70056765 26.78759517 -16 23 C-19.19909526 19.26772219 -19.46624129 15.89210851 -19.28515625 11.14453125 C-18.73245116 6.98788612 -16.66093858 4.76421023 -14 1.6875 C-9.4128794 -0.89275534 -5.13221205 -0.99711548 0 0 Z " fill="#DFDFDF" transform="translate(629,1320)"/>
<path d="M0 0 C3.19556529 1.26491126 4.53559295 2.48755084 6.8125 5 C8.65473845 9.65407608 8.78063124 14.07045828 8 19 C6.03202478 22.9515693 3.04226474 25.32448878 -1 27 C-5.65570345 27.72798272 -9.14371687 27.42814156 -13.375 25.3125 C-16.67927865 22.40158786 -18.69358771 20.33639371 -19.28125 15.85546875 C-19.53096624 9.58134822 -18.10024266 6.42840558 -14 1.6875 C-9.4353325 -0.88012547 -5.11957748 -0.63223698 0 0 Z " fill="#DFDFDF" transform="translate(583,912)"/>
<path d="M0 0 C3.2167418 1.32865422 4.56529379 2.28866257 6.375 5.25 C7.20813901 8.91581166 6.97369633 11.36486705 6 15 C3.94258871 18.02182284 2.50050175 19.69011377 -1.15625 20.4453125 C-4.99086602 20.6370433 -7.51536745 20.23221976 -11 18.5625 C-13.84918034 14.91198769 -14.2942122 11.57663425 -14 7 C-11.19742323 0.41394458 -6.80147289 -0.85018411 0 0 Z " fill="#DFDFDF" transform="translate(744,984)"/>
<path d="M0 0 C1.69531388 5.08594165 -1.48412829 9.36629813 -3.625 14.0625 C-4.06457031 15.08150391 -4.50414062 16.10050781 -4.95703125 17.15039062 C-5.39660156 18.12298828 -5.83617187 19.09558594 -6.2890625 20.09765625 C-6.88775146 21.43582397 -6.88775146 21.43582397 -7.49853516 22.80102539 C-9.34362479 25.50325666 -10.91292194 26.08124987 -14 27 C-12.63358421 23.40252773 -11.0328614 20.07041808 -9.1796875 16.69921875 C-8.64472656 15.72275391 -8.10976563 14.74628906 -7.55859375 13.74023438 C-7.00300781 12.73283203 -6.44742188 11.72542969 -5.875 10.6875 C-5.31167969 9.66076172 -4.74835937 8.63402344 -4.16796875 7.57617188 C-2.78117107 5.04937949 -1.39177165 2.52405506 0 0 Z " fill="#F9D8AB" transform="translate(656,1190)"/>
<path d="M0 0 C0.66 1.32 1.32 2.64 2 4 C-2.95 10.435 -2.95 10.435 -8 17 C-8.66 16.67 -9.32 16.34 -10 16 C-9.52949219 15.34773438 -9.05898438 14.69546875 -8.57421875 14.0234375 C-5.33556068 9.47724667 -2.28222074 5.1014346 0 0 Z " fill="#F6D3A5" transform="translate(676,1297)"/>
</svg>
