<?xml version="1.0" encoding="UTF-8"?>
<svg id="Layer_2" data-name="Layer 2" xmlns="http://www.w3.org/2000/svg" viewBox="0 0 192.38 293.5">
  <defs>
    <style>
      .cls-1 {
        fill: #918e8b;
      }

      .cls-2 {
        fill: #ddc2a5;
      }
    </style>
  </defs>
  <g id="Layer_1-2" data-name="Layer 1">
    <g>
      <path class="cls-1" d="M7.44,199.01h11.37v11.37c0,3.54-2.87,6.41-6.41,6.41H1.03v-11.37c0-3.54,2.87-6.41,6.41-6.41Z" transform="translate(-147.41 71.63) rotate(-46.37)"/>
      <path class="cls-2" d="M186.03,201.23c-3.4-6.96-8.02-13.38-12.24-19.86-1.52-2.34-3.04-4.68-4.57-7.02.14-.49.29-.98.41-1.47,7.1-27.17,3.33-54.75-9.9-79.4-6.48-12.07-14.3-23.46-19.77-36.07-2.66-6.13-4.71-12.56-5.79-19.16-.53-3.25-.83-6.55-.81-9.84.01-1.91.14-3.82.39-5.72.05-.38.12-.75.18-1.12.37-1.08.73-2.16,1.07-3.25,1.46,12.76,10.53,22.12,17.79,32.06,7.76,10.64,12.76,24.07,8.81,37.28-.05.17-.81,2.66-.63,2.72.19.06,1.28-2.9,1.14-2.54,1.62-4.15,2.99-8.41,4.27-12.67,4.18-13.93,2.78-27.43-5.38-39.64-7.58-11.34-18.55-21.23-20-35.54.02.22-1.18,2.64-1.14,2.54-.81,2.07-1.53,4.19-2.24,6.3-.33.99-.85,2.17-1.35,3.4-2.73,6.25-4.84,12.84-6.71,19.37-1.43,5.02-2.25,10.1-2.22,15.33.07,11.53,3.73,22.79,8.76,33.06,5.15,10.53,11.6,20.35,17.19,30.65-3.7,5.32-7.71,10.41-12.07,15.22-.11.12-.23.25-.34.37-2.61-4.78-5.3-9.52-7.43-14.54-4.59-10.81-4.81-23.55-1.46-34.73.04-.11.82-2.67.64-2.73-.19-.06-1.28,2.9-1.14,2.54-1.61,4.15-2.99,8.41-4.27,12.67-3.42,11.41-4.75,23.13-1.69,34.81,1.11,4.26,2.97,8.26,5.03,12.16-.8.63-1.62,1.23-2.46,1.78.01-.02.02-.04.03-.06-.02.03-.04.05-.06.08-1.96,1.3-4.03,2.4-6.25,3.16-15.05,5.16-30.35-5.19-45.65-2.72.04-.18.08-.36.12-.54.48-.46.98-.89,1.54-1.24,1.9-1.2,4.32-1.58,6.44-2.18,5.43-1.55,11.21-2.82,16.36-5.18,4.39-2.02,7.53-5.96,9.59-10.24,1.67-3.47,2.78-7.28,3.96-10.93.57-1.74,1.39-3.6,1.64-5.41.02-.14.45-1.87.03-1-5.91,12.28-19.08,11.96-30.38,16.26-2.96,1.12-5.01,3.8-6.4,6.55-2.51,4.97-4.12,10.56-5.78,15.85-.43,1.36-.82,2.71-1.17,4.07-.41,1.44-.74,2.7-.88,3.13-.71,2.11-1.42,4.23-2.03,6.37-.08.28-.63,2.71-.63,2.71,13.46-2.97,27.14,4.81,40.46,3.8-6.13,6.52-12.66,12.62-19.78,17.73-.12.09-.25.17-.37.26-5.26-8.42-13.71-14.62-23.63-17.47-4.34-1.25-10.28-2.79-12.53,2.28-1.74,3.91-2.99,8.13-4.26,12.21-.57,1.83-1.26,3.73-1.38,5.65-.27,4.31.6,9.41,2.18,13.41,5.88,14.93,23.38,8.9,33.67,1.75,3.02,4.94,4.87,10.55,5.5,16.36.44,4.08.28,8.21-.33,12.26-.19,1.25-.42,2.49-.69,3.72-.46,1.38-.91,2.77-1.34,4.16-.26.84-1.85,6.55-.59,3.38,5.4-13.59,11.09-28.87,8.69-43.74-.25-1.54-.61-3.02-1.03-4.48,10.65-9.63,20.04-20.91,28.89-32,4.85-3.19,9.02-7.68,12.83-11.98.94,1.7,1.86,3.41,2.71,5.13,8.65,17.52,19.56,33.61,30.2,49.97,4.38,6.73,9.25,13.4,12.64,20.7,1.29,2.78,2.26,5.7,2.71,8.74.28,1.89.35,3.79.29,5.7-.04,1.04-.11,2.07-.24,3.11-.07.62-.16,1.23-.28,1.84-.02.11-.04.2-.06.3-.26.78-.51,1.56-.75,2.34-5.31,7.02-16.84,11.74-24.78,6.15-5.53-3.89-7.41-10.71-7.6-17.51,3.41-9.4,7.13-19.8,1.13-29.06-6.54-10.11-19.11-5.67-26.43.88-7.84,7.01-14.39,17.29-25.99,17.69-.96.03-3.06,7.9-3.38,8.84-.24.72-2.47,9.07-2.66,9.08,15.1-.53,20.97-17.12,33.46-22.79,5.8-2.64,12.9-2.71,17.47,2.28,1.29,1.41,2.31,3.12,3.08,4.98-.1.05-.21.1-.31.15-2.7,1.37-5.32,2.91-7.87,4.55-5.12,3.3-9.95,7.04-14.68,10.87-9.47,7.66-18.66,15.8-29.31,21.83-11.75,6.65-27.24,10.24-40.15,6.43,1.25-2.61,2.92-9.1,3.16-9.86,5.63-17.4,9.08-35.85-4.27-50.66-6.54-7.25-14.69-12.84-21.09-20.28-7.12-8.28-12.91-18.7-11.29-29.96.16-1.11-.73,1.08-.58.81-.85,1.55-1.39,3.65-1.97,5.3-1.24,3.54-2.93,7.36-3.46,11.1-2.93,20.42,14.81,34.52,28.18,46.79,11.51,10.56,17.09,26.28,12.19,41.42-.51,1.57-1.27,3.43-1.57,5.11-6.67-2.13-12.61-6.27-16.93-13.07-2.89-4.55-4.63-9.79-5.37-15.12-.38-2.78-.5-5.6-.34-8.39.08-1.38.22-2.75.43-4.12.08-.51.16-1.02.25-1.53.03-.2.08-.39.12-.58.45-1.37.9-2.73,1.32-4.1.26-.84,1.86-6.54.59-3.38-6.83,17.04-13.77,37.05-3.57,54.29,9.79,16.55,31.02,18.8,47.74,12.66,19.44-7.14,33.68-23,50.25-34.73,4.24-3,8.66-5.77,13.34-8.05.97-.47,2.08-.88,3.12-1.37-1.45,9-1.31,20.2,5.96,26.64,7.86,6.97,20.76,1.69,26.08-5.79,1.71-2.4,2.44-6.07,3.38-8.84.47-1.4.93-2.8,1.37-4.21.3-.67.61-1.34.59-1.27,5.5-14.02,11.42-29.49,4.36-43.96ZM67.14,186.24c-4.7-.21-8.45-3.05-10.73-7.05-.18-.32-.36-.67-.53-1.02,2.11.45,4.11,1.14,5.38,1.57,4.16,1.42,8.13,3.45,11.68,6.04-1.95.38-3.9.55-5.8.46ZM90,221.61c.11-.31.22-.58.32-.82-.11.27-.21.55-.32.82ZM149.01,141.99c-1.67-3.05-3.19-6.17-4.74-9.27,3.02-4.04,5.85-8.23,8.48-12.54,1.06-1.73,1.8-3.79,2.45-5.87,5.13,10.09,8.93,20.7,10.75,31.93,1.32,8.14,1.66,16.44,1.02,24.65-1.51-2.32-3.03-4.64-4.54-6.97-4.66-7.19-9.29-14.41-13.42-21.92Z"/>
      <path class="cls-1" d="M89.33,293.16l.18.33h.17s.17,0,.17,0h.33s.17-.18.17-.18l3.86-1.45c1.45-.48,2.69-.96,3.69-1.44,2.8-1.08,5.19-2.27,7.19-3.56,4.78-3.05,8.26-6.06,10.45-9.05.43-.69.92-1.48,1.46-2.4l.65-1.03.65-1.2.69.49.69.49c.46.33.92.6,1.38.81.8.55,1.48.47,2.03-.22.43-.58.83-.59,1.18-.03.35.44.59.83.71,1.17l1.79,4.02c.6,1.46,1.14,2.79,1.62,4.02.12.34.24.79.37,1.35l.19.84.19.67v.51s.19.33.19.33l.33-.18h.17s.33-.18.33-.18l.49-.86.32-.85c.33-.57.53-1.14.64-1.71.1-.45.25-1.02.46-1.71l.29-1.86c.19-1.47.39-2.61.6-3.41.62-2.38,1.3-4.49,2.05-6.31.32-.69.71-1.03,1.16-1.05.56-.13,1.13.14,1.71.81l.18.33.35.32c.11.23.29.4.52.5h.51c.34-.02.56-.08.67-.2.55-.57.82-1.37.79-2.39s-.27-1.86-.74-2.53l-.87-.99c-.7-.89-1.44-1.32-2.23-1.3s-1.51.43-2.17,1.24c-1.2,1.61-2.02,3.15-2.43,4.63-.31,1.25-.67,2.83-1.07,4.77l-.45,2.38-.45,2.38c0,.11-.05.28-.16.51v.17s-.16.34-.16.34c-.9-4.49-2.22-7.91-3.97-10.23-1.05-1.44-2.21-2.43-3.46-2.97-.8-.42-1.43-.58-1.87-.46-.34.12-.72.59-1.15,1.38l-.65,1.2-.65,1.2c-.54,1.02-1.03,1.83-1.47,2.4-1.53,2.07-3.57,4.04-6.12,5.9-2.56,1.64-5.84,3.75-9.84,6.33l-4.83,3.16-4.83,3.33c-.34.13-.67.36-1,.7l-1,.7Z"/>
      <path class="cls-1" d="M134.89,174.82c-.46-1.89-1.44-3.4-2.88-4.68-1.39-1.24-3.04-2.48-3.32-4.41-.01-.62-.04-1.22-.1-.43-.13,1.7-.18,3.4-.2,5.11,0,.92-.07,1.91.21,2.8.51,1.6,1.87,2.65,3.08,3.72,1.35,1.19,2.35,2.53,2.87,4.26.09.31.17.63.23.95-.07.21-.17.36-.3.42-.49.22-1.55-.57-2.03-.84-.7-.39-1.37-.83-2.02-1.3-1.25-.91-2.39-1.97-3.41-3.13-2.09-2.38-3.61-5.19-4.46-8.24.05.16-.1.93-.1,1.01-.05.81-.08,1.63-.1,2.45-.03,1.07-.29,2.42,0,3.47.76,2.71,2.06,5.22,3.77,7.4-.27.54-.64,1.04-1.12,1.45-1.24,1.07-2.88,1.1-4.28.3-1.47-.83-2.31-2.31-2.91-3.84-.73-1.86-1.28-3.8-1.89-5.7.05.14-.1.97-.1,1.01-.05.81-.08,1.63-.1,2.45-.03,1.04-.32,2.46,0,3.47.66,2.01,1.21,4.1,2.03,6.05.72,1.71,1.86,3.35,3.72,3.9,1.77.52,3.39-.37,4.29-1.9,1.02-1.71,1.04-3.85,1.16-5.78,0-.14.01-.28.02-.42,2.04,2.28,4.57,4.12,7.44,5.34.01-.04.02-.08.03-.12.46-2.35.66-4.68.74-7.07.09-2.53.31-5.21-.3-7.7Z"/>
      <path class="cls-1" d="M9.49,221.41h11.37v11.37c0,3.54-2.87,6.41-6.41,6.41H3.08v-11.37c0-3.54,2.87-6.41,6.41-6.41Z" transform="translate(-162.99 80.06) rotate(-46.37)"/>
      <path class="cls-1" d="M66.64,118.32c-2.4,5-6.6,7.85-10.96,10.42-4.75,2.8-9.41,5.62-13.66,9.23-3.93,3.34-8.14,7.11-10.88,11.8-2.66,4.55-3.81,11.08-4.57,16.69-.11.82.45-.84.32-.52.44-1.04.68-2.4.97-3.51.01-.03.03-.06.04-.09.32-.54.64-1.09.97-1.63.58-.88,1.25-1.67,1.91-2.46,1.46-1.74,3.02-3.39,4.62-4.96,3.35-3.28,6.98-6.2,10.84-8.72,6.42-4.2,14.02-6.97,17.73-14.69,1.01-2.1,1.39-4.89,1.94-7.26.27-1.16.69-2.38.76-3.61,0-.12.23-1.21-.03-.68Z"/>
      <path class="cls-1" d="M83.24,244.34c-1.32,4.46-5.7,9.42-9.66,4.3-3.68-4.76-1.98-13.85-1.08-19.31.24-1.44.17-1.39-.24-.05-.6,1.95-.96,4.06-1.29,6.08-.57,3.47-1.03,6.97-1.15,10.49-.11,3.3-.38,7.5,1.34,10.49,1.31,2.29,3.71,4.06,6.28,2.61,2.52-1.42,3.64-4.54,4.41-7.15.57-1.92.95-3.9,1.31-5.87.07-.4.54-3.11.09-1.59h0Z"/>
      <path class="cls-1" d="M190.7,179.7c-2.16-5.52-6.06-9.54-10.97-12.72.06.04-.68,3.43-.72,3.75-.07.44-.83,3.53-.42,3.79,4.02,2.59,7.4,5.69,9.68,9.95,1.91,3.56,3.61,8.57,3.06,12.64-.05.38-.29,2.79-.21,2.66.65-1.02.65-3.47.81-4.62.72-5.31.76-10.38-1.22-15.45Z"/>
      <circle class="cls-1" cx="168.58" cy="233.48" r="3.67"/>
      <circle class="cls-1" cx="114.86" cy="132.04" r="3.67"/>
      <circle class="cls-1" cx="42.98" cy="242.92" r="3.67"/>
      <circle class="cls-1" cx="153.08" cy="7.83" r="3.67"/>
    </g>
  </g>
</svg>